<svg width="148" height="105" viewBox="0 0 148 105" fill="none" xmlns="http://www.w3.org/2000/svg">
<g clip-path="url(#clip0_23_88)">
<path d="M11.3853 2.78946H135.439V97.6316H11.3853V2.78946Z" stroke="black" stroke-width="6"/>
<path d="M25.2086 34.636C22.8674 34.636 20.7542 34.1711 18.8691 33.2412C16.9839 32.3114 15.3573 31.0562 13.989 29.4755C12.6207 27.8638 11.5565 26.0661 10.7964 24.0825C10.0667 22.0678 9.70181 20.0068 9.70181 17.8991C9.70181 15.6985 10.0971 13.6064 10.8876 11.6228C11.6782 9.60817 12.7728 7.82604 14.1714 6.27633C15.5701 4.69563 17.212 3.45586 19.0971 2.55703C21.0127 1.6272 23.0802 1.16229 25.2998 1.16229C27.6106 1.16229 29.7086 1.6427 31.5937 2.60352C33.5093 3.56434 35.1359 4.85059 36.4738 6.46229C37.8421 8.07399 38.891 9.87168 39.6208 11.8553C40.3809 13.8389 40.761 15.869 40.761 17.9456C40.761 20.1462 40.3656 22.2538 39.5752 24.2684C38.815 26.252 37.7356 28.0342 36.337 29.6149C34.9383 31.1647 33.2812 32.3889 31.3657 33.2877C29.4805 34.1866 27.4282 34.636 25.2086 34.636ZM14.9012 17.8991C14.9012 19.4489 15.1444 20.952 15.6309 22.4088C16.1174 23.8655 16.8015 25.1673 17.6833 26.314C18.5954 27.4298 19.69 28.3132 20.9671 28.964C22.2441 29.6149 23.6731 29.9404 25.2542 29.9404C26.8961 29.9404 28.3556 29.5994 29.6326 28.9176C30.9096 28.2357 31.9737 27.3213 32.8252 26.1746C33.7069 24.9968 34.3758 23.695 34.8319 22.2693C35.288 20.8126 35.516 19.3559 35.516 17.8991C35.516 16.3494 35.2728 14.8617 34.7863 13.436C34.3302 11.9792 33.6461 10.693 32.7339 9.5772C31.8218 8.43041 30.7272 7.53159 29.4502 6.88071C28.2035 6.22984 26.8049 5.9044 25.2542 5.9044C23.6123 5.9044 22.1529 6.24534 20.8758 6.9272C19.5988 7.60907 18.5194 8.52341 17.6377 9.67019C16.7559 10.8169 16.0718 12.1033 15.5853 13.529C15.1292 14.9547 14.9012 16.4114 14.9012 17.8991ZM87.2335 1.39475V34.4035H82.0797V19.8518H65.752V34.4035H60.6439V1.39475H65.752V15.2026H82.0797V1.39475H87.2335ZM122.587 34.636C120.246 34.636 118.133 34.1711 116.247 33.2412C114.363 32.3114 112.736 31.0562 111.367 29.4755C109.999 27.8638 108.936 26.0661 108.175 24.0825C107.445 22.0678 107.08 20.0068 107.08 17.8991C107.08 15.6985 107.476 13.6064 108.266 11.6228C109.057 9.60817 110.151 7.82604 111.55 6.27633C112.949 4.69563 114.591 3.45586 116.475 2.55703C118.391 1.6272 120.459 1.16229 122.678 1.16229C124.99 1.16229 127.088 1.6427 128.972 2.60352C130.888 3.56434 132.515 4.85059 133.852 6.46229C135.22 8.07399 136.269 9.87168 136.999 11.8553C137.76 13.8389 138.139 15.869 138.139 17.9456C138.139 20.1462 137.744 22.2538 136.953 24.2684C136.194 26.252 135.115 28.0342 133.715 29.6149C132.317 31.1647 130.66 32.3889 128.744 33.2877C126.86 34.1866 124.807 34.636 122.587 34.636ZM112.28 17.8991C112.28 19.4489 112.523 20.952 113.009 22.4088C113.496 23.8655 114.18 25.1673 115.062 26.314C115.974 27.4298 117.068 28.3132 118.345 28.964C119.622 29.6149 121.052 29.9404 122.633 29.9404C124.274 29.9404 125.734 29.5994 127.011 28.9176C128.288 28.2357 129.352 27.3213 130.203 26.1746C131.086 24.9968 131.754 23.695 132.21 22.2693C132.666 20.8126 132.894 19.3559 132.894 17.8991C132.894 16.3494 132.652 14.8617 132.165 13.436C131.709 11.9792 131.024 10.693 130.112 9.5772C129.2 8.43041 128.106 7.53159 126.828 6.88071C125.582 6.22984 124.183 5.9044 122.633 5.9044C120.991 5.9044 119.531 6.24534 118.254 6.9272C116.977 7.60907 115.898 8.52341 115.016 9.67019C114.135 10.8169 113.451 12.1033 112.964 13.529C112.508 14.9547 112.28 16.4114 112.28 17.8991ZM35.7537 38.5412H24.9901V66.9474H19.8364V38.5412H9.02734V33.9386H35.7537V38.5412ZM67.3241 62.3447V66.9474H45.113V33.9386H66.9137V38.5412H50.2211V47.9325H64.6789V52.2561H50.2211V62.3447H67.3241ZM77.6561 66.9474V33.9386H100.415V38.4947H82.7642V47.7465H92.2507C95.8386 47.7465 98.5296 48.6143 100.324 50.35C102.117 52.0547 103.015 54.3173 103.015 57.1377C103.015 59.0283 102.619 60.7176 101.829 62.2053C101.068 63.662 99.9133 64.8243 98.3626 65.6921C96.8421 66.529 94.9112 66.9474 92.57 66.9474H77.6561ZM82.7642 62.3912H91.8858C93.2846 62.3912 94.4095 62.1278 95.2608 61.6009C96.1426 61.074 96.7664 60.4076 97.1312 59.6018C97.5262 58.7649 97.7241 57.8971 97.7241 56.9983C97.7241 56.0994 97.5563 55.2626 97.2224 54.4877C96.8877 53.7129 96.2793 53.093 95.3977 52.6281C94.5463 52.1322 93.3453 51.8842 91.7946 51.8842H82.7642V62.3912ZM135.036 62.3447V66.9474H112.825V33.9386H134.626V38.5412H117.933V47.9325H132.391V52.2561H117.933V62.3447H135.036ZM35.64 66.4825V99.4912H30.4863V84.9395H14.1586V99.4912H9.0505V66.4825H14.1586V80.2904H30.4863V66.4825H35.64ZM53.2066 66.4825H58.0411L70.6289 99.4912H65.2471L61.8265 90.5184H49.3299L45.9549 99.4912H40.5276L53.2066 66.4825ZM60.8232 86.6597L55.6238 72.2009L50.2421 86.6597H60.8232ZM70.4376 105.814V94.8886H71.9883C72.8396 94.8886 73.5694 94.5474 74.1775 93.8658C74.816 93.1842 75.3481 92.0991 75.7738 90.6114C76.2299 89.1237 76.5795 87.1711 76.8228 84.7535C77.0964 82.305 77.294 79.314 77.4157 75.7807L77.6437 66.4825H98.4867V94.8886H102.591V105.814H98.0762V99.4912H74.9528V105.814H70.4376ZM78.4647 94.8886H93.3329V71.0851H82.3869L82.2501 76.4781C82.1589 80.0424 81.9765 83.0643 81.7028 85.5439C81.4292 87.9924 81.0339 89.9761 80.517 91.4947C80.0001 93.0132 79.316 94.1447 78.4647 94.8886ZM122.406 99.7237C120.065 99.7237 117.952 99.2588 116.067 98.329C114.181 97.3991 112.555 96.1439 111.187 94.5632C109.818 92.9515 108.754 91.1538 107.994 89.1702C107.264 87.1555 106.9 85.0945 106.9 82.9869C106.9 80.7862 107.295 78.6941 108.085 76.7105C108.876 74.6959 109.971 72.9138 111.369 71.364C112.768 69.7833 114.409 68.5436 116.295 67.6447C118.21 66.7149 120.278 66.25 122.498 66.25C124.808 66.25 126.906 66.7305 128.791 67.6912C130.707 68.652 132.333 69.9383 133.672 71.55C135.04 73.1617 136.089 74.9594 136.818 76.943C137.578 78.9266 137.959 80.9568 137.959 83.0333C137.959 85.234 137.564 87.3415 136.773 89.3561C136.013 91.3397 134.933 93.1219 133.535 94.7026C132.136 96.2527 130.479 97.4763 128.563 98.3755C126.678 99.2746 124.626 99.7237 122.406 99.7237ZM112.099 82.9869C112.099 84.5366 112.342 86.0397 112.829 87.4965C113.315 88.9533 113.999 90.255 114.881 91.4018C115.793 92.5176 116.888 93.4009 118.165 94.0518C119.442 94.7026 120.871 95.0281 122.452 95.0281C124.094 95.0281 125.553 94.6868 126.83 94.0053C128.107 93.3237 129.172 92.409 130.023 91.2623C130.905 90.0845 131.574 88.7827 132.03 87.357C132.486 85.9003 132.714 84.4436 132.714 82.9869C132.714 81.4371 132.47 79.9494 131.984 78.5237C131.528 77.0669 130.844 75.7807 129.932 74.6649C129.02 73.5182 127.925 72.6193 126.648 71.9684C125.401 71.3176 124.003 70.9921 122.452 70.9921C120.81 70.9921 119.351 71.3331 118.074 72.0149C116.797 72.6968 115.717 73.6112 114.835 74.7579C113.953 75.9047 113.269 77.191 112.783 78.6167C112.327 80.0424 112.099 81.4991 112.099 82.9869Z" fill="black"/>
</g>
<defs>
<clipPath id="clip0_23_88">
<rect width="148" height="105" fill="white"/>
</clipPath>
</defs>
</svg>
